<?xml version="1.0" encoding="UTF-8" standalone="no"?>
<!-- Generator: Adobe Illustrator 17.1.0, SVG Export Plug-In . SVG Version: 6.00 Build 0)  -->

<svg
   xmlns:dc="http://purl.org/dc/elements/1.1/"
   xmlns:cc="http://creativecommons.org/ns#"
   xmlns:rdf="http://www.w3.org/1999/02/22-rdf-syntax-ns#"
   xmlns:svg="http://www.w3.org/2000/svg"
   xmlns="http://www.w3.org/2000/svg"
   xmlns:sodipodi="http://sodipodi.sourceforge.net/DTD/sodipodi-0.dtd"
   xmlns:inkscape="http://www.inkscape.org/namespaces/inkscape"
   version="1.1"
   id="Layer_1"
   x="0px"
   y="0px"
   width="1056.0747"
   height="1056.0747"
   viewBox="0 0 1056.0747 1056.0747"
   enable-background="new 0 0 1000 1000"
   xml:space="preserve"
   inkscape:version="0.48.4 r9939"
   sodipodi:docname="speedometer26.svg"><metadata
     id="metadata3104"><rdf:RDF><cc:Work
         rdf:about=""><dc:format>image/svg+xml</dc:format><dc:type
           rdf:resource="http://purl.org/dc/dcmitype/StillImage" /><dc:title></dc:title></cc:Work></rdf:RDF></metadata><defs
     id="defs3102" /><sodipodi:namedview
     pagecolor="#ffffff"
     bordercolor="#666666"
     borderopacity="1"
     objecttolerance="10"
     gridtolerance="10"
     guidetolerance="10"
     inkscape:pageopacity="0"
     inkscape:pageshadow="2"
     inkscape:window-width="1812"
     inkscape:window-height="916"
     id="namedview3100"
     showgrid="false"
     fit-margin-top="0"
     fit-margin-left="0"
     fit-margin-right="0"
     fit-margin-bottom="0"
     inkscape:zoom="0.428"
     inkscape:cx="122.66355"
     inkscape:cy="539.71957"
     inkscape:window-x="0"
     inkscape:window-y="26"
     inkscape:window-maximized="0"
     inkscape:current-layer="Layer_1" /><rect
     style="fill:#fffc7f;fill-opacity:1;stroke:none"
     id="rect3106"
     width="1056.0747"
     height="1056.0747"
     x="0"
     y="0" /><g
     id="g3082"
     transform="translate(18.691591,16.355141)"><path
       d="m 981.279,750.457 c -0.072,-2.064 -0.144,-4.139 -0.216,-6.222 -0.076,-2.081 -0.153,-4.17 -0.23,-6.266 l -0.06,-1.571 -0.03,-0.787 -0.008,-0.197 -0.019,-1.761 -0.006,-0.082 -0.025,-0.325 -0.202,-2.607 c -0.271,-3.48 -0.542,-6.974 -0.813,-10.468 l -0.207,-2.645 -0.313,-3.428 c -0.215,-2.282 -0.43,-4.562 -0.645,-6.837 -0.223,-2.271 -0.447,-4.538 -0.669,-6.799 -0.115,-1.128 -0.229,-2.255 -0.343,-3.38 -0.138,-1.041 -0.276,-2.081 -0.414,-3.119 -1.139,-8.243 -2.156,-16.343 -3.608,-24.129 -0.686,-3.896 -1.32,-7.727 -2.032,-11.462 -0.777,-3.724 -1.537,-7.367 -2.277,-10.914 -1.402,-7.097 -3.163,-13.726 -4.647,-19.855 -0.38,-1.53 -0.752,-3.029 -1.116,-4.493 -0.404,-1.456 -0.799,-2.877 -1.184,-4.263 -0.782,-2.766 -1.524,-5.39 -2.221,-7.856 -0.71,-2.461 -1.336,-4.771 -1.99,-6.888 -0.674,-2.111 -1.292,-4.051 -1.851,-5.802 -0.829,-2.575 -1.528,-4.743 -2.079,-6.455 -0.815,-2.53 -3.487,-3.952 -6.043,-3.223 l -160.613,45.772 c -2.447,0.697 -3.964,3.134 -3.498,5.636 0.174,0.933 0.373,2.003 0.595,3.201 0.229,1.206 0.483,2.541 0.759,3.995 0.26,1.456 0.465,3.051 0.729,4.74 0.258,1.689 0.532,3.487 0.821,5.382 0.141,0.947 0.308,1.913 0.44,2.91 0.114,1.001 0.23,2.025 0.349,3.07 0.448,4.185 1.116,8.67 1.413,13.482 0.198,2.392 0.402,4.85 0.61,7.361 0.156,2.517 0.234,5.098 0.368,7.709 0.348,5.212 0.282,10.64 0.382,16.115 l 0.023,2.038 -0.072,1.806 c -0.041,1.202 -0.083,2.408 -0.124,3.616 -0.032,1.204 -0.065,2.411 -0.098,3.619 l -0.038,1.808 -0.11,2.601 c -0.149,3.501 -0.299,7.002 -0.448,10.49 l -0.112,2.613 -0.014,0.326 -0.003,0.081 c 0.002,0.393 -0.031,-3.112 -0.02,-1.598 l -0.012,0.129 -0.048,0.516 -0.095,1.031 c -0.124,1.372 -0.248,2.739 -0.371,4.101 -0.119,1.36 -0.238,2.715 -0.356,4.062 -0.16,1.342 -0.319,2.678 -0.478,4.005 -0.341,2.65 -0.551,5.275 -0.973,7.832 -0.37,2.558 -0.734,5.073 -1.09,7.535 -0.425,2.445 -0.841,4.837 -1.246,7.166 -0.366,2.33 -0.856,4.574 -1.292,6.746 -0.456,2.169 -0.819,4.274 -1.292,6.272 -0.461,1.997 -0.903,3.91 -1.324,5.73 -0.208,0.899 -0.41,1.774 -0.606,2.625 -0.202,0.73 -0.398,1.438 -0.588,2.125 -0.113,0.42 -0.218,0.815 -0.327,1.221 H 975.71 c 2.633,0 4.826,-2.067 4.926,-4.697 10e-4,-0.016 10e-4,-0.032 0.002,-0.048 0.163,-3.657 0.331,-7.413 0.503,-11.253 0.073,-3.837 0.147,-7.757 0.223,-11.743 0.113,-3.982 -0.009,-8.029 -0.019,-12.121 -0.023,-2.048 -0.044,-4.106 -0.066,-6.173 z"
       id="path3084"
       inkscape:connector-curvature="0" /><path
       d="m 930.201,544.278 c 2.635,-1.059 3.837,-4.112 2.622,-6.679 -0.54,-1.141 -1.171,-2.474 -1.886,-3.984 -0.674,-1.418 -1.42,-2.989 -2.231,-4.698 -1.049,-2.136 -2.183,-4.447 -3.395,-6.916 -1.222,-2.458 -2.522,-5.075 -3.893,-7.833 -0.695,-1.434 -1.378,-2.617 -2.093,-3.963 -0.712,-1.316 -1.441,-2.662 -2.185,-4.037 -1.497,-2.745 -3.029,-5.613 -4.671,-8.551 -1.697,-2.907 -3.451,-5.913 -5.254,-9.003 -0.904,-1.541 -1.821,-3.102 -2.749,-4.683 -0.971,-1.556 -1.954,-3.131 -2.947,-4.723 -1.997,-3.171 -4.038,-6.412 -6.113,-9.706 -4.377,-6.45 -8.734,-13.196 -13.596,-19.761 -1.195,-1.653 -2.395,-3.312 -3.598,-4.975 l -1.809,-2.495 -1.884,-2.453 c -2.52,-3.262 -5.05,-6.537 -7.58,-9.812 -2.576,-3.237 -5.24,-6.406 -7.85,-9.587 -1.32,-1.58 -2.599,-3.183 -3.946,-4.727 -1.351,-1.539 -2.698,-3.074 -4.04,-4.602 -1.343,-1.524 -2.68,-3.043 -4.011,-4.554 -1.323,-1.516 -2.657,-3.008 -4.033,-4.45 -2.724,-2.901 -5.414,-5.766 -8.06,-8.585 -2.65,-2.81 -5.393,-5.451 -8.005,-8.091 -2.63,-2.626 -5.185,-5.205 -7.796,-7.6 -2.581,-2.416 -5.092,-4.766 -7.521,-7.04 -2.418,-2.279 -4.887,-4.349 -7.187,-6.399 -2.319,-2.028 -4.542,-3.971 -6.656,-5.819 -2.168,-1.787 -4.225,-3.481 -6.157,-5.073 -1.934,-1.586 -3.743,-3.07 -5.416,-4.442 -1.676,-1.367 -3.279,-2.552 -4.693,-3.657 -2.057,-1.579 -3.795,-2.913 -5.176,-3.973 -2.106,-1.616 -5.107,-1.271 -6.798,0.776 L 683.39,446.529 c -1.625,1.968 -1.487,4.844 0.327,6.64 0.72,0.712 1.552,1.536 2.489,2.463 0.897,0.901 1.925,1.855 2.98,2.969 1.053,1.113 2.192,2.318 3.409,3.604 1.218,1.28 2.514,2.642 3.88,4.078 1.317,1.483 2.702,3.043 4.147,4.67 1.427,1.642 2.987,3.273 4.471,5.09 1.497,1.8 3.044,3.66 4.635,5.573 1.622,1.878 3.168,3.917 4.77,5.977 1.585,2.074 3.279,4.12 4.871,6.312 1.593,2.186 3.212,4.409 4.851,6.659 0.836,1.108 1.629,2.262 2.41,3.434 0.79,1.163 1.584,2.331 2.381,3.505 0.798,1.169 1.6,2.343 2.404,3.52 0.802,1.177 1.537,2.411 2.312,3.615 1.522,2.431 3.099,4.828 4.595,7.278 1.458,2.473 2.917,4.946 4.369,7.409 l 1.09,1.838 1.021,1.877 c 0.681,1.247 1.361,2.49 2.038,3.727 2.795,4.889 5.154,9.929 7.623,14.667 1.13,2.427 2.241,4.814 3.329,7.151 0.544,1.164 1.082,2.316 1.614,3.454 0.493,1.157 0.979,2.301 1.459,3.429 0.965,2.247 1.904,4.433 2.812,6.547 0.839,2.143 1.649,4.213 2.427,6.2 0.389,0.992 0.769,1.962 1.141,2.911 0.352,0.927 0.788,1.928 1.023,2.699 0.554,1.62 1.08,3.156 1.574,4.6 0.504,1.434 0.976,2.775 1.413,4.016 0.573,1.71 1.099,3.28 1.574,4.698 0.529,1.584 0.995,2.984 1.395,4.182 0.898,2.694 3.879,4.067 6.514,3.008 l 149.463,-60.051 z"
       id="path3086"
       inkscape:connector-curvature="0" /><path
       d="m 491.218,357.898 c 1.305,0.178 2.75,0.375 4.324,0.59 1.564,0.272 3.256,0.567 5.063,0.882 1.804,0.31 3.724,0.639 5.748,0.987 1.757,0.292 3.579,0.716 5.471,1.112 l 54.405,-111.282 c -2.698,-0.421 -5.373,-0.839 -7.994,-1.248 -1.796,-0.267 -3.564,-0.574 -5.325,-0.794 -1.761,-0.213 -3.501,-0.424 -5.218,-0.632 -3.428,-0.407 -6.763,-0.804 -9.989,-1.187 -3.234,-0.277 -6.359,-0.545 -9.358,-0.802 -3,-0.23 -5.862,-0.533 -8.6,-0.663 -2.734,-0.134 -5.328,-0.262 -7.765,-0.382 -2.434,-0.115 -4.712,-0.222 -6.818,-0.322 -2.107,-0.034 -4.043,-0.065 -5.792,-0.093 -2.46,-0.03 -4.548,-0.055 -6.222,-0.075 -2.655,-0.032 -4.851,2.043 -4.979,4.695 l -4.961,103.577 c -0.122,2.552 1.719,4.774 4.25,5.121 1.078,0.148 2.335,0.321 3.76,0.516 z"
       id="path3088"
       inkscape:connector-curvature="0" /><path
       d="m 637.438,414.931 c 1.461,1.063 2.847,2.071 4.15,3.019 1.304,0.934 2.525,1.808 3.654,2.617 0.489,0.336 1.296,0.949 1.955,1.439 0.679,0.507 1.326,0.99 1.94,1.448 1.339,0.999 2.521,1.881 3.533,2.636 2.276,1.698 5.506,1.124 7.065,-1.25 l 71.031,-108.196 c 1.559,-2.374 0.802,-5.567 -1.662,-6.98 -1.095,-0.628 -2.375,-1.362 -3.823,-2.193 -0.665,-0.382 -1.365,-0.783 -2.1,-1.205 -0.801,-0.453 -1.638,-0.927 -2.511,-1.421 -2.021,-1.114 -4.207,-2.317 -6.542,-3.604 -2.336,-1.273 -4.823,-2.627 -7.444,-4.056 -2.497,-1.251 -5.121,-2.566 -7.86,-3.939 -2.75,-1.342 -5.556,-2.835 -8.565,-4.19 -2.995,-1.372 -6.091,-2.791 -9.274,-4.25 -3.161,-1.492 -6.497,-2.847 -9.883,-4.269 -3.4,-1.392 -6.821,-2.914 -10.393,-4.257 -0.905,-0.343 -1.824,-0.69 -2.736,-1.036 l -30.642,132.998 c 1.694,1.065 3.29,2.193 4.862,3.21 1.828,1.213 3.579,2.374 5.245,3.479 z"
       id="path3090"
       inkscape:connector-curvature="0" /><path
       d="m 395.844,357.356 c 1.372,-0.181 2.719,-0.405 4.064,-0.547 1.345,-0.136 2.674,-0.271 3.985,-0.405 2.615,-0.271 5.158,-0.535 7.619,-0.791 2.468,-0.165 4.852,-0.325 7.141,-0.479 1.142,-0.078 2.26,-0.154 3.353,-0.229 1.09,-0.073 2.182,-0.166 3.118,-0.167 1.929,-0.051 3.76,-0.098 5.479,-0.143 1.713,-0.054 3.316,-0.105 4.799,-0.152 1.829,-0.012 3.509,-0.023 5.026,-0.033 1.67,-0.009 3.145,-0.017 4.408,-0.024 2.84,-0.015 5.072,-2.42 4.886,-5.254 l -6.394,-97.57 c -0.186,-2.834 -2.713,-4.927 -5.53,-4.571 -1.253,0.158 -2.716,0.343 -4.373,0.552 -1.536,0.195 -3.237,0.412 -5.089,0.648 -2.188,0.325 -4.554,0.675 -7.083,1.05 -2.521,0.384 -5.205,0.793 -8.034,1.224 -1.448,0.204 -2.781,0.475 -4.18,0.739 -1.394,0.266 -2.822,0.539 -4.279,0.817 -2.909,0.562 -5.939,1.148 -9.076,1.754 -3.114,0.709 -6.333,1.443 -9.642,2.196 -1.651,0.379 -3.325,0.764 -5.019,1.154 -1.692,0.396 -3.388,0.88 -5.11,1.325 -3.434,0.915 -6.942,1.85 -10.51,2.8 -3.532,1.065 -7.123,2.147 -10.757,3.243 -1.812,0.561 -3.642,1.09 -5.462,1.689 -1.813,0.619 -3.637,1.24 -5.467,1.865 -1.827,0.626 -3.661,1.254 -5.5,1.885 -1.84,0.626 -3.683,1.255 -5.501,1.972 -3.645,1.391 -7.304,2.788 -10.963,4.185 -3.643,1.426 -7.226,3.006 -10.817,4.501 -1.79,0.763 -3.585,1.499 -5.354,2.282 -1.757,0.811 -3.508,1.619 -5.253,2.425 -1.741,0.806 -3.476,1.61 -5.201,2.409 -1.725,0.798 -3.443,1.584 -5.113,2.451 -3.352,1.692 -6.663,3.364 -9.919,5.008 -3.257,1.633 -6.361,3.435 -9.444,5.094 -3.069,1.69 -6.087,3.302 -8.934,5.039 -2.863,1.698 -5.648,3.351 -8.342,4.949 -2.702,1.576 -5.208,3.278 -7.664,4.816 -2.439,1.563 -4.776,3.062 -6.999,4.487 -2.175,1.493 -4.239,2.909 -6.178,4.24 -1.934,1.332 -3.744,2.578 -5.418,3.731 -1.672,1.153 -3.151,2.296 -4.514,3.284 -1.847,1.364 -3.424,2.528 -4.7,3.47 -2.131,1.573 -2.631,4.544 -1.141,6.735 l 40.515,59.566 c 1.442,2.12 4.261,2.785 6.494,1.525 1.029,-0.58 2.245,-1.267 3.632,-2.049 1.209,-0.669 2.517,-1.459 3.994,-2.228 1.476,-0.769 3.072,-1.6 4.777,-2.488 1.7,-0.889 3.51,-1.835 5.417,-2.832 1.94,-0.93 3.979,-1.908 6.107,-2.928 2.138,-0.996 4.307,-2.137 6.646,-3.132 2.321,-1.019 4.721,-2.072 7.189,-3.155 2.443,-1.125 5.031,-2.108 7.649,-3.158 2.632,-1.02 5.267,-2.174 8.029,-3.149 2.749,-0.991 5.545,-1.998 8.374,-3.018 1.403,-0.533 2.847,-0.984 4.294,-1.446 1.444,-0.465 2.896,-0.932 4.353,-1.401 1.454,-0.47 2.914,-0.942 4.377,-1.416 1.472,-0.447 2.965,-0.847 4.449,-1.275 2.979,-0.824 5.937,-1.738 8.937,-2.504 3.002,-0.743 6.004,-1.486 8.994,-2.225 1.485,-0.395 2.991,-0.704 4.49,-1.013 1.496,-0.315 2.988,-0.629 4.474,-0.942 1.483,-0.315 2.959,-0.628 4.429,-0.94 1.473,-0.294 2.954,-0.521 4.415,-0.784 2.922,-0.507 5.808,-1.009 8.648,-1.501 2.85,-0.394 5.654,-0.782 8.399,-1.161 z"
       id="path3092"
       inkscape:connector-curvature="0" /><path
       d="m 119.585,434.37 c -1.062,1.502 -2.128,3.011 -3.199,4.526 -1.068,1.514 -2.14,3.035 -3.216,4.559 -1.071,1.527 -2.073,3.111 -3.115,4.669 -2.054,3.137 -4.156,6.25 -6.168,9.422 -1.965,3.199 -3.93,6.398 -5.887,9.585 l -1.46,2.386 -1.386,2.424 c -0.921,1.613 -1.839,3.221 -2.754,4.823 -3.74,6.352 -6.989,12.847 -10.291,19.015 -1.537,3.145 -3.049,6.238 -4.529,9.265 -0.734,1.513 -1.461,3.01 -2.178,4.488 -0.675,1.499 -1.341,2.98 -1.999,4.442 -1.31,2.919 -2.584,5.758 -3.817,8.505 -1.15,2.78 -2.262,5.465 -3.329,8.044 -1.046,2.585 -2.103,5.034 -3.004,7.409 -0.889,2.377 -1.733,4.632 -2.527,6.751 -0.79,2.117 -1.529,4.098 -2.212,5.929 -0.631,1.851 -1.21,3.55 -1.734,5.085 -0.68,2.017 -1.264,3.75 -1.741,5.167 -0.845,2.506 0.44,5.226 2.91,6.173 l 37.71,14.457 c 2.4,0.92 5.103,-0.154 6.212,-2.473 0.55,-1.149 1.207,-2.523 1.962,-4.102 0.626,-1.301 1.318,-2.742 2.073,-4.311 0.802,-1.545 1.669,-3.216 2.596,-5.002 0.924,-1.783 1.906,-3.68 2.942,-5.68 1.044,-1.994 2.246,-4.04 3.439,-6.199 1.208,-2.149 2.467,-4.388 3.77,-6.705 1.373,-2.274 2.792,-4.625 4.252,-7.043 0.727,-1.207 1.464,-2.43 2.21,-3.668 0.785,-1.215 1.58,-2.445 2.383,-3.688 1.606,-2.48 3.247,-5.013 4.916,-7.59 3.546,-5.019 7.014,-10.307 10.933,-15.407 0.957,-1.288 1.918,-2.581 2.882,-3.878 l 1.445,-1.947 1.514,-1.905 c 2.016,-2.538 4.04,-5.085 6.064,-7.633 2.061,-2.515 4.2,-4.967 6.279,-7.44 1.054,-1.226 2.066,-2.478 3.145,-3.672 1.08,-1.191 2.156,-2.378 3.228,-3.561 1.07,-1.182 2.135,-2.359 3.195,-3.531 1.05,-1.178 2.11,-2.335 3.211,-3.445 2.166,-2.243 4.306,-4.459 6.411,-6.639 2.101,-2.177 4.294,-4.198 6.364,-6.24 2.086,-2.027 4.104,-4.027 6.182,-5.86 2.044,-1.86 4.032,-3.669 5.956,-5.42 1.908,-1.761 3.874,-3.333 5.69,-4.911 1.828,-1.557 3.58,-3.049 5.246,-4.468 1.636,-1.295 3.188,-2.523 4.646,-3.678 1.45,-1.155 2.807,-2.236 4.062,-3.236 0.576,-0.475 1.356,-1.046 2.015,-1.547 0.676,-0.51 1.321,-0.997 1.933,-1.458 1.333,-1.006 2.51,-1.894 3.518,-2.655 2.267,-1.711 2.618,-4.973 0.774,-7.133 L 184.172,369.07 c -1.844,-2.16 -5.121,-2.325 -7.166,-0.355 -0.909,0.876 -1.972,1.899 -3.174,3.058 -0.552,0.531 -1.134,1.092 -1.744,1.679 -0.621,0.603 -1.212,1.152 -1.982,1.939 -1.472,1.485 -3.063,3.092 -4.764,4.808 -1.692,1.717 -3.493,3.544 -5.392,5.47 -1.765,1.912 -3.621,3.922 -5.557,6.019 -1.912,2.113 -3.974,4.242 -5.969,6.576 -2.003,2.322 -4.073,4.722 -6.202,7.19 -2.155,2.439 -4.24,5.057 -6.385,7.714 -2.129,2.671 -4.373,5.336 -6.514,8.16 -2.135,2.824 -4.305,5.696 -6.501,8.603 -1.116,1.441 -2.183,2.929 -3.237,4.439 z"
       id="path3094"
       inkscape:connector-curvature="0" /><path
       d="m 41.565,610.722 c -0.251,1.237 -0.545,2.683 -0.878,4.32 -0.305,1.502 -0.643,3.166 -1.011,4.977 -0.361,1.851 -0.714,4.04 -1.108,6.272 -0.388,2.253 -0.8,4.651 -1.234,7.179 -0.21,1.26 -0.45,2.562 -0.649,3.875 -0.177,1.304 -0.357,2.638 -0.542,4 -0.704,5.453 -1.631,11.321 -2.165,17.589 -0.31,3.123 -0.628,6.33 -0.953,9.609 -0.268,3.282 -0.447,6.645 -0.678,10.053 -0.54,6.81 -0.639,13.874 -0.864,21.021 l -0.073,2.685 0.013,2.698 c 0.01,1.8 0.02,3.605 0.03,5.414 0.011,1.806 0.022,3.616 0.032,5.428 l 0.017,2.716 0.104,2.718 c 0.147,3.619 0.294,7.237 0.441,10.841 l 0.111,2.696 0.034,0.872 0.048,0.65 0.096,1.3 c 0.128,1.732 0.255,3.459 0.382,5.179 0.127,1.72 0.254,3.434 0.379,5.138 0.173,1.779 0.344,3.549 0.516,5.309 0.173,1.758 0.345,3.505 0.516,5.24 0.086,0.866 0.172,1.729 0.258,2.589 0.107,0.846 0.214,1.688 0.32,2.528 0.426,3.351 0.845,6.646 1.255,9.872 0.495,3.211 0.979,6.353 1.449,9.411 0.44,3.058 1.007,6.014 1.528,8.873 0.043,0.229 0.086,0.457 0.128,0.683 0.435,2.338 2.469,4.03 4.846,4.03 h 13.291 c 2.838,0 5.09,-2.387 4.923,-5.22 -0.045,-0.756 -0.091,-1.519 -0.142,-2.29 -0.166,-2.756 -0.366,-5.599 -0.43,-8.533 -0.096,-2.927 -0.194,-5.935 -0.295,-9.008 -0.019,-3.073 -0.038,-6.212 -0.057,-9.405 -0.005,-0.797 -0.01,-1.597 -0.015,-2.4 0.017,-0.792 0.035,-1.587 0.053,-2.385 0.035,-1.593 0.07,-3.198 0.106,-4.812 0.035,-1.613 0.071,-3.236 0.107,-4.866 0.08,-1.708 0.159,-3.424 0.24,-5.147 0.08,-1.723 0.161,-3.453 0.241,-5.188 l 0.061,-1.302 0.03,-0.652 0.004,-0.082 c 0,-0.208 0.004,0.192 0.006,0.123 l 0.012,-0.158 0.025,-0.315 0.202,-2.524 c 0.268,-3.364 0.537,-6.74 0.807,-10.117 l 0.206,-2.527 0.291,-2.521 c 0.194,-1.678 0.387,-3.354 0.58,-5.028 0.192,-1.671 0.384,-3.339 0.575,-5.001 l 0.285,-2.488 0.369,-2.471 c 1.012,-6.571 1.872,-13.033 3.132,-19.222 0.591,-3.099 1.12,-6.149 1.727,-9.118 0.661,-2.957 1.307,-5.85 1.936,-8.666 1.164,-5.641 2.673,-10.886 3.901,-15.747 0.315,-1.213 0.623,-2.401 0.924,-3.562 0.318,-1.143 0.661,-2.225 0.977,-3.297 0.637,-2.133 1.242,-4.157 1.81,-6.058 0.581,-1.918 1.058,-3.633 1.614,-5.355 0.583,-1.754 1.117,-3.365 1.601,-4.82 0.526,-1.585 0.991,-2.985 1.389,-4.184 0.895,-2.695 -0.668,-5.58 -3.412,-6.312 l -33.319,-8.884 c -2.745,-0.73 -5.537,0.994 -6.103,3.777 z"
       id="path3096"
       inkscape:connector-curvature="0" /><path
       d="m 418.728,783.42 c 10.839,5.299 22.323,7.811 33.627,7.811 28.378,0 55.651,-15.812 68.954,-43.025 2.561,-5.238 4.545,-11.021 5.835,-16.466 l 77.577,-336.717 29.544,-128.233 18.302,-79.437 c 2.13,-9.245 -5.223,-15.543 -12.601,-15.543 -4.32,0 -8.648,2.159 -11.087,7.148 l -37.245,76.183 -54.945,112.386 -153.175,313.312 c -18.603,38.051 -2.837,83.979 35.214,102.581 z m 36.471,-108.435 c 20.759,0 37.588,16.829 37.588,37.588 0,20.759 -16.829,37.588 -37.588,37.588 -20.759,0 -37.588,-16.829 -37.588,-37.588 0,-20.76 16.829,-37.588 37.588,-37.588 z"
       id="path3098"
       inkscape:connector-curvature="0" /></g></svg>